<svg xmlns="http://www.w3.org/2000/svg" version="1.1" xmlns:xlink="http://www.w3.org/1999/xlink" xmlns:svgjs="http://svgjs.dev/svgjs" width="2000" height="1607" viewBox="0 0 2000 1607"><g transform="matrix(1,0,0,1,0,0)"><svg viewBox="0 0 448 360" data-background-color="#ffffff" preserveAspectRatio="xMidYMid meet" height="1607" width="2000" xmlns="http://www.w3.org/2000/svg" xmlns:xlink="http://www.w3.org/1999/xlink"><g id="tight-bounds" transform="matrix(1,0,0,1,0,0)"><svg viewBox="0 0 448 360" height="360" width="448"><g><svg></svg></g><g><svg viewBox="0 0 448 360" height="360" width="448"><g><path d="M193.855 44.683c1.378 0 2.494 1.116 2.495 2.494 0 1.378-1.116 2.494-2.495 2.495h-23.846l-17.167 17.167c-0.973 0.973-2.551 0.973-3.53 0-0.973-0.973-0.973-2.551 0-3.529l13.644-13.645h-40.378c-11.518 0-19.151 2.688-23.815 8.113-4.739 5.519-6.66 14.056-6.66 25.63 0 0.069 0 0.137-0.006 0.206l0.212 36.692 14.692-14.692c0.973-0.973 2.551-0.973 3.53 0 0.973 0.973 0.973 2.551 0 3.53l-18.178 18.178c0.206 35.832 0.193 71.358-0.013 107.19 25.486 25.2 50.617 50.312 75.811 75.791h25.38c1.378 0 2.494 1.116 2.495 2.495 0 1.378-1.116 2.494-2.495 2.494h-20.448l25.942 26.241 0.006-0.006c8.188 8.188 15.577 12.859 22.824 13.413 7.146 0.543 14.442-2.956 22.586-11.093l28.555-28.555h-20.722c-1.378 0-2.494-1.116-2.495-2.494 0-1.378 1.116-2.494 2.495-2.495h25.711l16.625-16.625c0.973-0.973 2.551-0.973 3.529 0 0.973 0.973 0.973 2.551 0 3.53l-13.101 13.102h40.377c11.518 0 19.151-2.688 23.815-8.113 4.739-5.519 6.66-14.056 6.66-25.63h0.013l-0.212-36.898-16.014 16.014c-0.973 0.973-2.551 0.973-3.53 0-0.973-0.973-0.973-2.551 0-3.53l19.5-19.5c-0.206-35.832-0.193-71.358 0.013-107.19-25.486-25.2-50.617-50.312-75.811-75.791h-26.147c-1.378 0-2.494-1.116-2.495-2.495 0-1.378 1.116-2.494 2.495-2.494h21.215l-25.824-26.123c-0.044-0.037-0.081-0.075-0.124-0.112-8.188-8.188-15.577-12.859-22.824-13.413-7.146-0.543-14.442 2.956-22.586 11.093l-28.555 28.555h18.858zM122.578 44.683h45.367l32.078-32.078c9.248-9.248 17.81-13.195 26.484-12.534 8.568 0.649 16.956 5.824 25.985 14.854 0.05 0.05 0.094 0.094 0.137 0.143l29.278 29.615h43.508c13.071 0 21.919 3.268 27.594 9.871 5.6 6.517 7.864 16.101 7.864 28.867 0 0.081-0.006 0.156-0.012 0.23l-0.225 39.742 28.43 28.112 0.006-0.006c9.03 9.03 14.206 17.411 14.854 25.985 0.661 8.674-3.293 17.236-12.534 26.484l-30.768 30.768 0.237 41.843h0.012c0 12.765-2.27 22.35-7.864 28.867-5.675 6.604-14.524 9.872-27.594 9.871h-45.366l-32.078 32.078c-9.248 9.248-17.81 13.195-26.484 12.534-8.568-0.649-16.956-5.824-25.985-14.854l0.006-0.006-29.421-29.758h-43.509c-13.071 0-21.919-3.268-27.594-9.872-5.6-6.517-7.864-16.101-7.863-28.866h0.012l0.231-39.972-28.293-27.969c-0.05-0.044-0.1-0.087-0.143-0.137-9.03-9.03-14.206-17.411-14.854-25.985-0.661-8.674 3.293-17.236 12.534-26.484l30.768-30.768-0.237-41.607c-0.006-0.075-0.012-0.156-0.012-0.23 0-12.765 2.27-22.35 7.864-28.867 5.675-6.604 14.524-9.872 27.594-9.871zM87.682 179.997l-0.274-47.724-27.276 27.276c-8.138 8.138-11.636 15.44-11.094 22.587 0.549 7.246 5.226 14.642 13.413 22.823 0.037 0.037 0.081 0.081 0.113 0.125l24.837 24.551 0.281-49.644zM92.303 241.483l-0.2 35.09h0.013c0 11.58 1.921 20.117 6.66 25.63 4.664 5.432 12.297 8.113 23.815 8.113h38.576l-33.55-33.936-35.308-34.903zM325.415 49.672h-38.575l33.549 33.936 35.308 34.902 0.2-34.884c-0.006-0.069-0.006-0.137-0.007-0.205 0-11.58-1.921-20.117-6.66-25.63-4.664-5.432-12.297-8.113-23.815-8.113zM360.599 130.352l-0.281 49.645 0.274 47.724 27.276-27.276c8.138-8.138 11.636-15.44 11.094-22.587-0.549-7.252-5.226-14.642-13.413-22.824l0.006-0.006-24.956-24.669z" fill="#bb84e8" fill-rule="nonzero" stroke="none" stroke-width="1" stroke-linecap="butt" stroke-linejoin="miter" stroke-miterlimit="10" stroke-dasharray="" stroke-dashoffset="0" font-family="none" font-weight="none" font-size="none" text-anchor="none" style="mix-blend-mode: normal" data-fill-palette-color="tertiary"></path></g><g transform="matrix(1,0,0,1,112,121.33985891258638)"><svg viewBox="0 0 224 117.32028217482726" height="117.32028217482726" width="224"><g><svg viewBox="0 0 224 117.32028217482726" height="117.32028217482726" width="224"><g><svg viewBox="0 0 224 117.32028217482726" height="117.32028217482726" width="224"><g><svg viewBox="0 0 224 117.32028217482726" height="117.32028217482726" width="224"><g id="textblocktransform"><svg viewBox="0 0 224 117.32028217482726" height="117.32028217482726" width="224" id="textblock"><g><svg viewBox="0 0 224 117.32028217482726" height="117.32028217482726" width="224"><g transform="matrix(1,0,0,1,0,0)"><svg width="224" viewBox="0.9755553777820001 -35.5 68.73277795555133 36" height="117.32028217482726" data-palette-color="#bb84e8"><path d="M6.25 0L2 0Q1.45 0 1.18-0.35 0.9-0.7 1-1.2L1-1.2 7.95-33.75Q8.05-34.3 8.45-34.65 8.85-35 9.35-35L9.35-35 13.15-35Q13.85-35 14.13-34.7 14.4-34.4 14.45-34.2L14.45-34.2 24.15-11.6 28.9-33.75Q29-34.3 29.4-34.65 29.8-35 30.35-35L30.35-35 34.55-35Q35.1-35 35.35-34.65 35.6-34.3 35.5-33.75L35.5-33.75 28.6-1.25Q28.5-0.7 28.1-0.35 27.7 0 27.15 0L27.15 0 23.35 0Q22.65 0 22.4-0.3 22.15-0.6 22.05-0.8L22.05-0.8 12.3-22.9 7.7-1.2Q7.6-0.7 7.2-0.35 6.8 0 6.25 0L6.25 0ZM50.2 0.5L50.2 0.5Q46.8 0.5 44.22-0.4 41.65-1.3 40.02-3.08 38.4-4.85 37.8-7.35 37.2-9.85 37.75-13.05L37.75-13.05Q38.1-15.1 38.62-17.45 39.15-19.8 39.65-21.95L39.65-21.95Q40.75-26.15 42.92-29.2 45.1-32.25 48.5-33.88 51.9-35.5 56.6-35.5L56.6-35.5Q59.95-35.5 62.55-34.65 65.15-33.8 66.87-32.2 68.6-30.6 69.3-28.5 70-26.4 69.5-23.9L69.5-23.9Q69.45-23.45 69.15-23.15 68.85-22.85 68.4-22.85L68.4-22.85 63.6-22.85Q63-22.85 62.67-23.13 62.35-23.4 62.35-24.05L62.35-24.05Q62.5-27.25 60.77-28.5 59.05-29.75 56.15-29.75L56.15-29.75Q52.8-29.75 50.3-27.88 47.8-26 46.75-21.7L46.75-21.7Q45.7-17.6 44.95-13.3L44.95-13.3Q44.2-9 45.72-7.13 47.25-5.25 50.6-5.25L50.6-5.25Q53.5-5.25 55.77-6.48 58.05-7.7 59.5-10.95L59.5-10.95Q59.85-11.65 60.2-11.9 60.55-12.15 61.1-12.15L61.1-12.15 65.95-12.15Q66.4-12.15 66.65-11.85 66.9-11.55 66.8-11.1L66.8-11.1Q66.15-8.7 64.82-6.58 63.5-4.45 61.42-2.88 59.35-1.3 56.57-0.4 53.8 0.5 50.2 0.5Z" opacity="1" transform="matrix(1,0,0,1,0,0)" fill="#bb84e8" class="wordmark-text-0" data-fill-palette-color="primary" id="text-0"></path></svg></g></svg></g></svg></g></svg></g></svg></g></svg></g></svg></g></svg></g><defs></defs></svg><rect width="448" height="360" fill="none" stroke="none" visibility="hidden"></rect></g></svg></g></svg>